<?xml version="1.0" encoding="UTF-8"?>
<svg width="373px" height="136px" viewBox="0 0 373 136" version="1.1" xmlns="http://www.w3.org/2000/svg" xmlns:xlink="http://www.w3.org/1999/xlink">
    <!-- Generator: Sketch 59.1 (86144) - https://sketch.com -->
    <title>资源 2</title>
    <desc>Created with Sketch.</desc>
    <defs>
        <linearGradient x1="0%" y1="49.9885066%" x2="100%" y2="49.9885066%" id="linearGradient-1">
            <stop stop-color="#DFF6F4" offset="0%"></stop>
            <stop stop-color="#1BD1D2" offset="100%"></stop>
        </linearGradient>
        <linearGradient x1="0%" y1="50.0036914%" x2="100%" y2="50.0036914%" id="linearGradient-2">
            <stop stop-color="#DFF6F4" offset="0%"></stop>
            <stop stop-color="#1BD1D2" offset="100%"></stop>
        </linearGradient>
        <linearGradient x1="0%" y1="49.9885066%" x2="100.04188%" y2="49.9885066%" id="linearGradient-3">
            <stop stop-color="#DFF6F4" offset="0%"></stop>
            <stop stop-color="#1BD1D2" offset="100%"></stop>
        </linearGradient>
        <linearGradient x1="0.00398875175%" y1="50.0166845%" x2="100%" y2="50.0166845%" id="linearGradient-4">
            <stop stop-color="#DFF6F4" offset="0%"></stop>
            <stop stop-color="#1BD1D2" offset="100%"></stop>
        </linearGradient>
        <linearGradient x1="2.3073315e-14%" y1="50%" x2="99.9918818%" y2="50%" id="linearGradient-5">
            <stop stop-color="#FFFFFF" offset="0%"></stop>
            <stop stop-color="#C5C5C5" offset="79%"></stop>
        </linearGradient>
        <linearGradient x1="0%" y1="50.03535%" x2="99.9974355%" y2="50.03535%" id="linearGradient-6">
            <stop stop-color="#DFF6F4" offset="0%"></stop>
            <stop stop-color="#1BD1D2" offset="100%"></stop>
        </linearGradient>
    </defs>
    <g id="页面-1" stroke="none" stroke-width="1" fill="none" fill-rule="evenodd">
        <g id="404" transform="translate(-497.000000, -205.000000)" fill-rule="nonzero">
            <g id="资源-2" transform="translate(497.000000, 205.000000)">
                <path d="M335.38,133 L335.38,97.36 L274.79,97.36 L274.79,85.83 L332.92,2.49 L352.05,2.49 L352.05,83.68 L370.35,83.68 L370.35,97.36 L352.05,97.36 L352.05,133 L335.38,133 Z M335.38,83.71 L335.38,40 C335.38,33.19 335.6,26.39 336.05,19.55 L335.37,19.44 C331.29,27.22 328.12,32.83 324.51,38.86 L292.7,83.28 L292.7,83.68 L335.38,83.71 Z" id="形状" fill="url(#linearGradient-1)"></path>
                <path d="M354.54,135.45 L332.89,135.45 L332.89,99.84 L272.3,99.84 L272.3,85.05 L331.63,0 L354.54,0 L354.54,81.2 L372.83,81.2 L372.83,99.84 L354.54,99.84 L354.54,135.45 Z M337.86,130.45 L349.57,130.45 L349.57,94.87 L367.86,94.87 L367.86,86.17 L349.57,86.17 L349.57,5 L334.22,5 L277.28,86.61 L277.28,94.87 L337.86,94.87 L337.86,130.45 Z M337.86,86.14 L289.86,86.14 L290.3,82.33 L322.42,37.49 C326.27,31.06 329.42,25.49 333.16,18.28 L333.98,16.71 L338.67,17.42 L338.52,19.7 C338.08,26.43 337.85,33.25 337.85,39.99 L337.86,86.14 Z M297.25,81.14 L332.89,81.14 L332.89,40 C332.89,36.33 332.96,32.64 333.09,28.95 C331.01,32.72 328.96,36.27 326.64,40.14 L326.53,40.31 L297.25,81.14 Z" id="形状" fill="url(#linearGradient-2)"></path>
                <path d="M63.07,133 L63.07,97.36 L2.49,97.36 L2.49,85.83 L60.62,2.49 L79.75,2.49 L79.75,83.68 L98,83.68 L98,97.36 L79.75,97.36 L79.75,133 L63.07,133 Z M63.07,83.71 L63.07,40 C63.07,33.19 63.3,26.39 63.75,19.55 L63.06,19.44 C59,27.24 55.82,32.85 52.21,38.88 L20.4,83.28 L20.4,83.68 L63.07,83.71 Z" id="形状" fill="url(#linearGradient-3)"></path>
                <path d="M82.23,135.45 L60.59,135.45 L60.59,99.84 L0,99.84 L0,85.05 L59.32,0 L82.23,0 L82.23,81.2 L100.53,81.2 L100.53,99.84 L82.23,99.84 L82.23,135.45 Z M65.56,130.45 L77.26,130.45 L77.26,94.87 L95.56,94.87 L95.56,86.17 L77.26,86.17 L77.26,5 L61.92,5 L5,86.61 L5,94.87 L65.56,94.87 L65.56,130.45 Z M65.56,86.14 L17.56,86.14 L18,82.36 L50.13,37.52 C53.97,31.09 57.13,25.52 60.86,18.31 L61.69,16.74 L66.38,17.45 L66.23,19.73 C65.78,26.46 65.56,33.28 65.56,40.02 L65.56,86.14 Z M25,81.2 L60.59,81.2 L60.59,40 C60.59,36.33 60.65,32.64 60.78,28.95 C58.7,32.72 56.65,36.27 54.34,40.14 L54.23,40.31 L25,81.2 Z" id="形状" fill="url(#linearGradient-2)"></path>
                <path d="M107.46,117.64 C101,105 112.53,89.75 123.33,79.23 C136.51,66.38 155.85,53.18 177.77,42.06 C199.69,30.94 221.77,23.13 239.93,20.06 C254.79,17.56 273.86,17.25 280.3,29.94 L266.56,36.94 C265.87,35.58 259.96,32.34 242.48,35.28 C225.82,38.08 205.31,45.37 184.74,55.81 C164.17,66.25 146.18,78.48 134.08,90.28 C121.38,102.65 120.5,109.28 121.19,110.69 L107.46,117.64 Z" id="路径" fill="url(#linearGradient-4)"></path>
                <circle id="椭圆形" fill="url(#linearGradient-5)" cx="191.67" cy="67.73" r="61.59"></circle>
                <path d="M132.85,128.9 C122.07,128.9 111.85,126.28 107.46,117.64 L121.19,110.64 C121.88,112 127.79,115.23 145.27,112.29 C161.93,109.49 182.44,102.21 203.01,91.77 C223.58,81.33 241.58,69.09 253.67,57.3 C266.37,44.93 267.25,38.25 266.56,36.89 L280.3,29.89 C286.73,42.58 275.22,57.78 264.43,68.3 C251.24,81.22 231.9,94.42 210,105.55 C188.1,116.68 166,124.47 147.84,127.55 C142.888973,128.411556 137.875294,128.863088 132.85,128.9 L132.85,128.9 Z" id="路径" fill="url(#linearGradient-6)"></path>
                <circle id="椭圆形" fill="#FFFFFF" opacity="0.39" cx="207.41" cy="44.99" r="24.86"></circle>
            </g>
        </g>
    </g>
</svg>