<svg width="14" height="14" xmlns="http://www.w3.org/2000/svg"><g fill-rule="nonzero" fill="none"><path d="M11.945 11.925c2.722-2.722 2.722-7.136 0-9.878-2.723-2.722-7.156-2.722-9.898 0-2.722 2.723-2.722 7.137 0 9.878a7.018 7.018 0 009.898 0zM5.995 3c0-.544.447-.991.991-.991.545 0 .992.447.992.991v4.978a.996.996 0 01-.992.992.996.996 0 01-.991-.992V3zm.972 6.98c.544 0 .992.448.992.992a.996.996 0 01-.992.992.996.996 0 01-.992-.992c0-.544.447-.991.992-.991z" fill="#D81E06"/><path d="M11.945 11.925c2.722-2.722 2.722-7.136 0-9.878-2.723-2.722-7.156-2.722-9.898 0-2.722 2.723-2.722 7.137 0 9.878a7.018 7.018 0 009.898 0zM5.995 3c0-.544.447-.991.991-.991.545 0 .992.447.992.991v4.978a.996.996 0 01-.992.992.996.996 0 01-.991-.992V3zm.972 6.98c.544 0 .992.448.992.992a.996.996 0 01-.992.992.996.996 0 01-.992-.992c0-.544.447-.991.992-.991z" fill="#F5222D"/></g></svg>