<svg width="14" height="14" xmlns="http://www.w3.org/2000/svg" xmlns:xlink="http://www.w3.org/1999/xlink"><defs><path d="M3.078 7a.602.602 0 01-.435-.177L.182 4.378a.607.607 0 01-.002-.864.62.62 0 01.872-.002l2.026 2.012 3.873-3.841a.608.608 0 01.87 0 .606.606 0 010 .86l-4.308 4.28A.603.603 0 013.078 7z" id="a"/></defs><g fill="none" fill-rule="evenodd"><path d="M14 0v9.333A4.667 4.667 0 019.333 14H0L14 0z" fill="#29CCB1"/><g transform="translate(5 6)"><mask id="b" fill="#fff"><use xlink:href="#a"/></mask><use fill="#000" fill-rule="nonzero" xlink:href="#a"/><g mask="url(#b)"><circle fill="#FFF" fill-rule="nonzero" cx="10" cy="10" r="10" transform="translate(-6 -6)"/></g></g></g></svg>