<svg width="40" height="40" xmlns="http://www.w3.org/2000/svg">
  <path d="M20 0c11.028 0 20 8.972 20 20s-8.972 20-20 20S0 31.028 0 20 8.972 0 20 0zm0 1.084C9.57 1.084 1.084 9.57 1.084 20S9.57 38.916 20 38.916 38.916 30.43 38.916 20 30.43 1.084 20 1.084zm.056 1.279c9.73.016 17.607 7.91 17.606 17.642-.001 9.746-7.903 17.648-17.648 17.647-9.748 0-17.646-7.9-17.642-17.648.003-9.776 7.905-17.658 17.684-17.641zm10.134 12.29c-.263-.005-.426.08-.58.294-.747 1.04-1.511 2.069-2.305 3.15-.812-1.083-1.585-2.12-2.366-3.15-.086-.113-.217-.269-.33-.271-.931-.022-1.863-.012-2.895-.012l3.966 5.107-4.386 5.584c.987 0 1.867-.011 2.745.007.267.005.427-.09.582-.296.774-1.02 1.561-2.033 2.345-3.046.087-.114.184-.221.299-.357.799 1.039 1.6 2.022 2.33 3.055.348.492.718.7 1.324.651.731-.06 1.47-.014 2.3-.014l-4.385-5.505 1.581-2.06 2.406-3.13c-.954 0-1.793.009-2.63-.007zm-18.464 0c-.262-.007-.388.09-.488.327-1.422 3.342-2.853 6.68-4.28 10.02-.044.104-.07.215-.117.354.789 0 1.519.013 2.248-.012.115-.004.276-.15.328-.27.264-.605.506-1.22.739-1.838.083-.218.182-.328.441-.325 1.364.013 2.728.012 4.091 0 .23 0 .345.08.428.29.25.625.507 1.25.789 1.861.06.127.24.277.368.282.742.027 1.485.012 2.277.012-.025-.107-.03-.163-.05-.21-1.5-3.414-3-6.827-4.514-10.235-.054-.118-.26-.233-.401-.239-.619-.026-1.24.001-1.859-.017zm9.42.038h-2.291v10.64h2.29V14.69zm-8.54 2.45l1.615 3.955h-3.193l1.578-3.954z" fill="#69BA00" fill-rule="evenodd"/>
</svg>
